#!OML:ASF F:\VICON\USERDATA\INSTALL\Justin_Nancy\Justin_Nancy.ASF
:FULLY-SPECIFIED
:DEGREES
129
root -0.901254 16.1472 6.18902 -48.4739 86.4322 -63.3941
lowerback 10.9642 0.644771 -5.47265
upperback 0.772761 0.279964 1.12905
thorax -5.37855 0.294743 4.23534
lowerneck -20.9122 -4.18252 -6.3778
upperneck 12.7008 -4.96562 6.49426
head 7.65189 -2.04802 2.56532
rclavicle 6.16232e-015 1.31198e-014
rhumerus -59.8006 12.3022 -95.5784
rradius 110.04
rwrist -13.4981
rhand -8.53805 24.0488
rfingers 7.12502
rthumb 17.3911 -5.19319
lclavicle 6.16232e-015 1.31198e-014
lhumerus -31.1427 -3.20275 93.4078
lradius 117.809
lwrist 24.0164
lhand -14.7624 11.4922
lfingers 7.12502
lthumb 11.3939 41.1626
rfemur -29.4523 -8.91846 11.0767
rtibia 87.2147
rfoot -6.50179 -4.82823
rtoes -7.24142
lfemur -14.049 0.8422 -33.4876
ltibia 41.3383
lfoot -24.9174 -3.32847
ltoes 13.6486
130
root -0.655743 16.1485 6.26347 -65.6615 87.3731 -80.7042
lowerback 11.224 0.19603 -5.4447
upperback 0.774073 -0.321101 1.19479
thorax -5.45302 0.00227813 4.38484
lowerneck -20.8492 -4.03742 -6.34088
upperneck 12.5872 -4.72226 6.18465
head 7.57714 -1.96335 2.48767
rclavicle -3.18055e-015 -8.74653e-015
rhumerus -60.4476 12.2519 -95.1472
rradius 111.031
rwrist -14.9353
rhand -7.65394 23.8182
rfingers 7.12502
rthumb 18.2418 -5.34644
lclavicle -3.18055e-015 -8.74653e-015
lhumerus -30.4488 -3.99621 93.7665
lradius 118.557
lwrist 25.1406
lhand -14.7181 11.8534
lfingers 7.12502
lthumb 11.4366 41.5214
rfemur -32.1336 -10.3766 10.1596
rtibia 88.0669
rfoot -7.47123 -3.49169
rtoes -6.75946
lfemur -12.3865 -0.813493 -33.5775
ltibia 39.9861
lfoot -24.4957 -2.93472
ltoes 13.0105
131
root -0.392177 16.1783 6.34109 -91.7622 87.3944 -106.765
lowerback 11.6321 -0.321319 -5.03615
upperback 0.773151 -0.961479 1.4081
thorax -5.61009 -0.313792 4.48695
lowerneck -20.8486 -3.78201 -6.29748
upperneck 12.5969 -4.35361 5.98849
head 7.54966 -1.80531 2.46303
rclavicle -7.95139e-016 -1.43125e-014
rhumerus -61.0868 12.6657 -94.8004
rradius 111.964
rwrist -16.0897
rhand -7.16555 23.7693
rfingers 7.12502
rthumb 18.7116 -5.35073
lclavicle -7.95139e-016 -1.43125e-014
lhumerus -30.1551 -5.18783 93.8422
lradius 119.006
lwrist 25.8782
lhand -15.8572 11.1927
lfingers 7.12502
lthumb 10.3379 40.9186
rfemur -34.2828 -11.4275 9.96976
rtibia 88.1751
rfoot -8.33023 -2.52081
rtoes -5.92121
lfemur -10.5478 -2.22431 -33.0734
ltibia 38.6185
lfoot -23.6253 -2.7556
ltoes 10.3057
132
root -0.0921712 16.2455 6.44508 -93.2433 86.065 -108.004
lowerback 11.915 -0.539584 -4.07169
upperback 0.846612 -1.09252 1.99962
thorax -5.68121 -0.391659 4.59305
lowerneck -20.6319 -3.37656 -5.91764
upperneck 12.4601 -3.81463 5.3925
head 7.41234 -1.59224 2.27265
rclavicle -4.37326e-015 1.39149e-014
rhumerus -61.6766 13.4825 -94.5497
rradius 112.823
rwrist -16.4782
rhand -8.03473 23.7826
rfingers 7.12502
rthumb 17.8754 -5.41591
lclavicle -4.37326e-015 1.39149e-014
lhumerus -30.0113 -5.79217 94.0744
lradius 119.512
lwrist 26.3637
lhand -16.7048 10.6508
lfingers 7.12502
lthumb 9.5202 40.4157
rfemur -36.0318 -11.0788 11.54
rtibia 87.4967
rfoot -8.84989 -2.90933
rtoes -7.66172
lfemur -8.50187 -2.87878 -31.2541
ltibia 37.2468
lfoot -22.6877 -2.52365
ltoes 6.78828
133
root 0.209881 16.3154 6.56662 -87.1347 85.4501 -101.53
lowerback 12.1852 -0.550541 -4.17316
upperback 0.978575 -1.09155 2.4834
thorax -5.68106 -0.381968 5.17176
lowerneck -20.4509 -2.94898 -5.66016
upperneck 12.4246 -3.20888 4.76952
head 7.31829 -1.3541 2.10054
rclavicle 9.93923e-015 -1.19271e-014
rhumerus -61.9971 14.2628 -94.4498
rradius 113.451
rwrist -16.1141
rhand -8.7714 24.2435
rfingers 7.12502
rthumb 17.1665 -5.01815
lclavicle 9.93923e-015 -1.19271e-014
lhumerus -30.1969 -6.29675 94.0634
lradius 120.184
lwrist 27.389
lhand -16.8276 10.3255
lfingers 7.12502
lthumb 9.40171 40.0958
rfemur -37.8058 -10.2418 12.4527
rtibia 86.5593
rfoot -9.39404 -2.95007
rtoes -9.432
lfemur -6.30776 -2.94321 -30.2396
ltibia 35.7406
lfoot -21.4171 -1.97349
ltoes 3.07373
134
root 0.507741 16.3761 6.65581 -80.4425 85.785 -94.908
lowerback 12.0701 -0.573018 -4.86001
upperback 0.957476 -1.20229 2.64119
thorax -5.60868 -0.420359 5.74987
lowerneck -20.6199 -2.72572 -5.76593
upperneck 12.7765 -2.84284 4.57052
head 7.44055 -1.2027 2.09752
rclavicle 1.2921e-014 5.96354e-015
rhumerus -62.2722 14.8729 -94.4144
rradius 114.019
rwrist -15.129
rhand -8.94678 25.0645
rfingers 7.12502
rthumb 16.9977 -4.21177
lclavicle 1.2921e-014 5.96354e-015
lhumerus -30.7181 -7.00123 94.1733
lradius 120.739
lwrist 28.2667
lhand -16.6007 10.0136
lfingers 7.12502
lthumb 9.62057 39.7739
rfemur -40.084 -9.7406 12.1108
rtibia 85.4781
rfoot -10.1893 -1.85518
rtoes -8.48592
lfemur -4.65749 -2.65382 -30.4158
ltibia 34.1915
lfoot -19.4661 -1.61145
ltoes -2.21298
135
root 0.806523 16.4441 6.72313 -71.683 86.7038 -86.6844
lowerback 11.6576 -0.660292 -5.83182
upperback 0.717781 -1.44439 2.59635
thorax -5.57827 -0.515603 6.29099
lowerneck -20.758 -2.479 -5.83574
upperneck 13.156 -2.43819 4.27807
head 7.56386 -1.04213 2.06316
rclavicle 2.24627e-014 3.1408e-014
rhumerus -62.5496 15.5186 -94.2613
rradius 114.585
rwrist -14.3628
rhand -8.64432 25.6976
rfingers 7.12502
rthumb 17.2888 -3.55339
lclavicle 2.24627e-014 3.1408e-014
lhumerus -31.5724 -7.80674 94.5124
lradius 121.105
lwrist 28.4146
lhand -16.4218 9.87927
lfingers 7.12502
lthumb 9.79323 39.6315
rfemur -42.8599 -9.57611 11.1986
rtibia 84.1028
rfoot -10.8266 -1.13041
rtoes -4.21022
lfemur -3.65853 -2.09265 -31.1882
ltibia 32.6666
lfoot -17.12 -1.88279
ltoes -7.47523
136
root 1.08984 16.5145 6.81925 -65.3119 87.9781 -80.7901
lowerback 11.6289 -0.857186 -7.43884
upperback 0.445123 -1.93298 2.56627
thorax -5.72986 -0.703303 7.26682
lowerneck -20.8335 -2.1622 -5.77412
upperneck 13.3213 -1.9365 3.78901
head 7.59848 -0.849026 1.95327
rclavicle -2.25621e-014 2.46493e-014
rhumerus -62.5899 16.1305 -93.9477
rradius 115.08
rwrist -13.8021
rhand -8.17591 25.9827
rfingers 7.12502
rthumb 17.7396 -3.2281
lclavicle -2.25621e-014 2.46493e-014
lhumerus -32.4384 -8.49077 94.6887
lradius 121.242
lwrist 28.0018
lhand -16.9074 9.25461
lfingers 7.12502
lthumb 9.3247 39.0284
rfemur -45.4318 -9.94065 10.3398
rtibia 82.4766
rfoot -11.2853 -1.64174
rtoes -1.06898
lfemur -2.74151 -1.4111 -31.9
ltibia 31.2147
lfoot -14.4468 -3.3713
ltoes -9.071
137
root 1.43378 16.6199 6.90076 -73.4137 86.9165 -88.342
lowerback 12.0843 -1.0771 -6.36647
upperback 0.602354 -2.0727 2.94647
thorax -5.8137 -0.792714 7.09742
lowerneck -20.9319 -1.90692 -5.61903
upperneck 13.452 -1.59132 3.5656
head 7.63754 -0.698824 1.89738
rclavicle 1.02374e-014 3.55825e-014
rhumerus -62.7179 16.3137 -93.9728
rradius 115.491
rwrist -13.0646
rhand -8.38126 26.3649
rfingers 7.12502
rthumb 17.542 -2.86367
lclavicle 1.02374e-014 3.55825e-014
lhumerus -33.3953 -9.45395 94.492
lradius 121.156
lwrist 27.2058
lhand -18.8891 7.86048
lfingers 7.12502
lthumb 7.41221 37.7106
rfemur -45.8103 -9.62589 11.8371
rtibia 79.8302
rfoot -12.0037 -2.46314
rtoes 1.48581
lfemur -0.607321 -1.39875 -30.367
ltibia 29.8881
lfoot -11.5242 -3.94149
ltoes -9.78864
